<?xml version="1.0" encoding="UTF-8" standalone="no"?>
<!DOCTYPE svg PUBLIC "-//W3C//DTD SVG 1.1//EN" "http://www.w3.org/Graphics/SVG/1.1/DTD/svg11.dtd">
<svg xmlns="http://www.w3.org/2000/svg" xmlns:xlink="http://www.w3.org/1999/xlink" xmlns:xodm="http://www.corel.com/coreldraw/odm/2003" width="800px" height="800px" viewBox="0 0 13333.33 13333.33" style="shape-rendering:geometricPrecision; text-rendering:geometricPrecision; image-rendering:optimizeQuality; fill-rule:evenodd; clip-rule:evenodd" version="1.1" xml:space="preserve">

<defs>

<style type="text/css">
   <![CDATA[
    .fil0 {fill:none}
    .fil1 {fill:#03A9F4}
    .fil3 {fill:#4FC3F7}
    .fil2 {fill:#FFFF66}
   ]]>
  </style>

</defs>

<g id="Layer_x0020_1">

<rect class="fil0" height="13333.33" width="13333.33" x="-0" y="-0.01"/>

<path class="fil1" d="M10210.03 4438.45l40.4 0c689.18,0 1249.57,560.39 1249.57,1249.57l0 3044.6c0,1323.53 -1079.97,2403.5 -2403.5,2403.5l-4859.67 0c-1323.53,0 -2403.5,-1079.97 -2403.5,-2403.5l0 -4131.91c0,-1323.53 1079.97,-2403.5 2403.5,-2403.5l4009.77 0c692.56,0 1347.42,299.12 1804.17,818.44 326.33,371.03 403.87,889.9 200.28,1340.12 -12.76,28.23 -26.45,55.8 -41.02,82.68z"/>

<path class="fil2" d="M4236.83 3021.83l4009.77 0c470.77,0 895.1,208.83 1184.98,538.42 112.78,128.23 138.47,300.15 68.11,455.75 -70.36,155.6 -216.43,249.85 -387.2,249.85l-4590.41 0c-274.23,0 -498.61,224.38 -498.61,498.61l0 0c0,274.23 224.37,498.61 498.61,498.61l5728.36 0c234.06,0 424.95,190.89 424.95,424.94l0 3044.6c0,868.38 -710.5,1578.88 -1578.88,1578.88l-4859.67 0c-868.38,0 -1578.88,-710.49 -1578.88,-1578.88l0 -4131.91c0,-868.38 710.49,-1578.88 1578.88,-1578.88zm4959.72 3252.62l-0 0c-211.91,0 -385.29,173.37 -385.29,385.29l0 2164.43c0,211.91 173.38,385.29 385.29,385.29l0 0c211.91,0 385.29,-173.37 385.29,-385.29l0 -2164.43c0,-211.91 -173.38,-385.29 -385.29,-385.29z"/>

<path class="fil3" d="M8811.26 7539.16l-6153.31 0 0 1193.46c0,868.39 710.5,1578.88 1578.88,1578.88l4859.67 0c868.38,0 1578.88,-710.5 1578.88,-1578.88l0 -223.7 -1093.55 0 0 315.24c0,211.91 -173.38,385.29 -385.29,385.29 -211.91,0 -385.28,-173.37 -385.28,-385.29l0 -1285z"/>

</g>

</svg>